<?xml version="1.0" encoding="UTF-8" standalone="no"?>
<!DOCTYPE svg PUBLIC "-//W3C//DTD SVG 1.1//EN" "http://www.w3.org/Graphics/SVG/1.1/DTD/svg11.dtd">
<svg width="100%" height="100%" viewBox="0 0 517 512" version="1.1" xmlns="http://www.w3.org/2000/svg" xmlns:xlink="http://www.w3.org/1999/xlink" xml:space="preserve" xmlns:serif="http://www.serif.com/" style="fill-rule:evenodd;clip-rule:evenodd;stroke-linejoin:round;stroke-miterlimit:1.41421;">
    <g transform="matrix(1,0,0,1,-252.7,-269.694)">
        <path d="M353.832,272.629C362.404,270.744 370.666,269.77 379.007,269.767C467.336,269.733 555.665,269.595 643.993,269.82C675.985,269.902 704.741,279.63 728.198,302.081C750.697,323.616 764.787,349.619 768.428,380.954C769.532,390.449 769.271,399.919 769.278,409.399C769.337,489.395 768.988,569.392 769.466,649.385C769.66,681.903 760.322,710.812 740.488,736.219C725.116,755.909 705.248,769.392 680.992,776.255C668.382,779.823 655.667,781.395 642.55,781.369C553.555,781.193 464.56,781.441 375.566,781.165C324.397,781.007 278.621,747.966 261.159,699.751C255.534,684.219 252.677,668.321 252.7,651.822C252.815,565.661 252.653,479.498 253.045,393.338C253.225,353.636 270.347,321.818 300.841,296.908C316.261,284.312 334.052,276.779 353.832,272.629M556.167,603.667C568.424,592.812 576.64,579.641 578.993,563.231C580.561,552.295 579.248,541.271 579.647,530.294C579.845,524.862 582.388,521.769 586.702,521.869C591.167,521.973 594.282,525.427 594.337,530.588C594.412,537.586 594.076,544.599 594.397,551.583C595.069,566.192 591.156,579.52 584.129,592.169C571.071,615.673 550.946,628.976 524.694,633.098C519.885,633.853 518.175,635.902 518.525,640.164C519.235,648.819 519.18,657.476 519.035,666.141C519.016,667.293 519.014,668.515 520.335,669.201C522.501,669.141 523.814,667.494 525.388,666.323C534.485,659.554 543.917,653.316 553.874,647.86C577.234,635.059 602.15,626.212 627.62,618.815C631.978,617.55 633.786,615.61 633.778,610.847C633.648,525.687 633.686,440.527 633.674,355.367C633.673,347.641 631.81,346.053 624.217,348.151C606.696,352.991 589.695,359.332 573.067,366.669C551.01,376.4 529.949,387.728 512.576,404.858C510.608,406.799 509.337,406.342 507.595,404.669C504.353,401.555 501.031,398.507 497.565,395.646C479.748,380.936 459.178,371.122 438.003,362.425C423.821,356.6 409.328,351.668 394.477,347.84C389.664,346.6 387.579,348.278 387.355,353.217C387.287,354.714 387.334,356.216 387.334,357.716C387.338,441.376 387.342,525.036 387.347,608.696C387.348,617.345 387.347,617.357 395.912,619.72C432.69,629.865 467.058,645.109 497.876,667.876C499.049,668.742 500.202,670.075 501.847,669.09C503.207,668.277 502.887,666.737 502.886,665.444C502.883,657.112 502.515,648.764 502.924,640.454C503.174,635.393 501.143,633.913 496.514,633.219C479.147,630.612 463.405,624.079 450.755,611.616C436.653,597.722 428.103,581.024 426.448,560.966C425.61,550.801 425.893,540.654 425.883,530.501C425.877,525.227 429.225,522.107 433.885,522.191C438.496,522.275 441.004,525.04 441.244,530.429C441.341,532.591 441.206,534.763 441.285,536.927C441.654,547.058 440.338,557.245 442.366,567.323C447.912,594.884 469.708,613.228 495.099,618.54C501.71,619.924 503.372,618.015 502.678,611.577C502.228,607.394 498.819,607.955 496.33,607.368C471.404,601.49 455.875,586.224 451.331,560.976C449.269,549.52 450.52,537.695 450.885,526.052C451.029,521.442 454.934,519.933 458.928,520.826C464.059,521.973 465.175,519.717 464.65,515.409C464.139,511.206 466.07,509.828 470.097,509.921C478.759,510.121 487.428,509.99 496.093,510.086C500.169,510.131 502.977,508.971 502.877,504.226C502.781,499.736 500.259,498.102 496.101,498.111C489.435,498.126 482.769,498.053 476.103,498.032C462.637,497.991 465.007,498.872 464.633,485.964C464.517,481.952 466.212,480.712 469.98,480.788C478.809,480.964 487.644,480.87 496.476,480.942C500.064,480.972 502.783,480.16 502.76,475.785C502.737,471.469 500.661,469.3 496.343,469.294C490.01,469.286 483.678,469.276 477.345,469.28C464.595,469.288 464.531,469.291 464.703,456.628C465.122,425.732 493.826,407.385 519.932,413.397C544.491,419.052 558.444,438.413 557.208,465.264C557.05,468.69 555.361,469.377 552.415,469.347C543.417,469.258 534.417,469.375 525.418,469.3C521.244,469.265 519.31,471.189 519.228,475.324C519.146,479.477 521.286,480.851 525.156,480.812C532.32,480.741 539.487,480.886 546.653,480.937C557.461,481.015 557.273,481.012 557.214,491.684C557.187,496.496 555.37,498.089 550.658,497.936C542.345,497.665 534.015,497.917 525.693,497.912C521.407,497.91 519.216,499.838 519.252,504.278C519.288,508.683 521.762,510.021 525.689,509.989C532.688,509.93 539.688,509.979 546.687,509.954C556.538,509.919 556.534,509.908 557.386,519.569C557.41,519.844 557.718,520.094 557.903,520.349C567.132,518.428 570.257,520.935 570.256,530.281C570.255,537.614 570.29,544.947 570.215,552.279C569.971,576.034 558.535,592.618 537.533,602.99C533.028,605.216 528.171,606.401 523.276,607.476C519.307,608.348 517.993,611.292 519.107,616.001C520.019,619.856 522.734,618.507 525.09,618.145C536.599,616.378 546.533,611.17 556.167,603.667M333.934,642.463C333.757,650.286 333.479,658.11 333.428,665.934C333.351,677.535 338.552,682.728 350.122,682.737C380.44,682.762 410.758,682.759 441.076,682.761C448.573,682.761 456.078,682.702 463.518,683.752C468.787,684.495 474.131,685.197 478.495,688.699C480.737,690.498 482.006,692.824 481.066,695.726C480.155,698.542 477.959,700.021 475.048,700.196C472.391,700.357 469.719,700.315 467.055,700.291C464.368,700.267 461.923,700.668 461.381,703.866C460.872,706.865 461.497,709.549 464.375,711.194C465.979,712.11 467.708,712.681 469.601,712.678C479.262,712.663 488.924,712.665 498.586,712.66C500.321,712.659 502.339,712.531 502.401,710.384C502.588,703.903 502.582,697.409 502.356,690.931C502.321,689.914 500.893,688.758 499.865,687.995C493.578,683.334 487.235,678.748 480.883,674.175C476.978,671.363 472.676,670.227 467.776,670.242C431.961,670.351 396.146,670.289 360.331,670.248C351.186,670.237 347.722,666.707 347.692,657.475C347.658,646.813 347.671,636.152 347.672,625.491C347.675,558.691 347.661,491.892 347.728,425.092C347.732,420.935 346.982,417.732 342.129,417.357C337.984,417.036 334.841,419.932 334.197,424.635C333.995,426.114 333.946,427.625 333.948,429.121C333.984,463.923 333.099,498.716 333.732,533.531C334.385,569.501 333.915,605.491 333.934,642.463M687.73,501.5C687.712,477.341 687.699,453.182 687.666,429.024C687.664,427.363 687.741,425.655 687.397,424.051C686.531,420.019 682.618,416.905 679.16,417.475C674.723,418.206 673.835,421.403 674.051,425.277C674.115,426.439 674.06,427.609 674.061,428.775C674.079,504.416 674.099,580.058 674.113,655.699C674.115,666.801 670.583,670.288 659.422,670.291C623.934,670.303 588.445,670.35 552.957,670.305C548.131,670.299 543.796,671.279 539.848,674.221C534.115,678.495 528.224,682.558 522.38,686.684C519.568,688.669 518.234,691.089 518.674,694.753C519.188,699.038 519.245,703.406 519.129,707.728C519.034,711.291 520.121,712.848 523.95,712.755C532.775,712.541 541.609,712.663 550.439,712.69C552.483,712.696 554.441,712.479 556.144,711.252C558.625,709.463 560.142,707.063 559.472,703.979C558.767,700.731 556.06,700.287 553.216,700.278C550.385,700.27 547.541,700.323 544.73,700.059C542.019,699.805 540.167,698.18 539.258,695.574C538.32,692.884 539.238,690.634 541.093,688.74C543.258,686.531 546.064,685.427 548.999,684.686C555.84,682.959 562.831,682.774 569.834,682.773C603.656,682.771 637.478,682.783 671.3,682.764C682.978,682.758 687.696,678.04 687.699,666.446C687.713,611.797 687.72,557.149 687.73,501.5M648.114,505.5C648.131,542.995 648.153,580.491 648.163,617.986C648.166,627.421 646.61,629.38 637.288,631.794C632.776,632.962 628.242,634.051 623.749,635.286C608.666,639.433 594.125,645.06 579.827,651.439C584.143,651.019 588.439,650.513 592.528,649.307C606.299,645.244 620.404,642.939 634.535,640.653C647.301,638.587 645.335,640.087 645.209,649.742C645.158,653.681 646.533,655.296 650.421,654.894C651.74,654.757 653.097,654.753 654.416,654.891C658.573,655.327 659.813,653.494 659.807,649.407C659.685,566.251 659.683,483.095 659.642,399.939C659.639,393.924 657.256,390.616 652.818,390.861C646.921,391.187 648.063,395.882 648.06,399.514C648.03,434.509 648.085,469.505 648.114,505.5M362.142,573.5C361.878,597.989 361.591,622.479 361.362,646.968C361.286,655.107 361.38,654.86 369.276,655.08C374.406,655.223 376.299,653.244 375.714,648.323C375.539,646.846 375.739,645.327 375.721,643.827C375.684,640.863 377.039,639.503 380.054,639.937C390.426,641.43 400.797,642.89 411.069,645.042C420.009,646.914 428.756,649.842 437.981,650.309C419.9,642.519 401.496,635.803 382.146,631.94C375.867,630.687 372.973,627.083 372.877,620.243C372.735,610.079 372.819,599.912 372.821,589.746C372.835,525.752 372.855,461.758 372.865,397.764C372.865,394.586 373.263,390.857 368.78,390.532C364.485,390.221 362.786,393.185 362.021,397.054C361.326,400.569 361.95,404.035 361.952,407.516C361.974,462.51 362.065,517.505 362.142,573.5M545.037,579.527C551.668,572.281 555.345,563.971 554.625,552.348C544.715,570.889 530.606,580.76 510.829,581.146C491.028,581.532 477.237,571.148 466.894,553.784C465.92,561.782 468.738,570.525 473.55,576.681C490.936,598.923 523.67,600.46 545.037,579.527M469.024,537.676C478.01,537.713 486.996,537.722 495.981,537.797C500.039,537.831 502.918,536.54 502.829,531.905C502.746,527.55 499.919,526.328 496.125,526.337C488.137,526.356 480.149,526.309 472.163,526.414C470.139,526.44 467.071,525.422 466.516,528.102C465.87,531.217 464.428,534.995 469.024,537.676M528.665,526.296C527.836,526.296 527.003,526.342 526.177,526.288C522.438,526.044 519.487,526.836 519.34,531.388C519.206,535.57 521.429,537.672 526.282,537.716C534.41,537.789 542.542,537.643 550.668,537.806C555.448,537.902 554.801,534.651 554.9,531.701C555.002,528.622 554.759,526.128 550.522,526.258C543.561,526.473 536.588,526.305 528.665,526.296M494.967,431.359C487.965,434.898 482.982,440.204 480.691,447.815C479.742,450.968 480.366,453.052 484.281,452.945C489.099,452.814 493.92,452.826 498.74,452.786C500.788,452.769 502.514,452.135 502.548,449.804C502.645,443.229 502.582,436.652 502.582,430.155C499.672,429.553 497.654,430.265 494.967,431.359M540.366,447.096C536.507,437.936 529.633,432.395 519.329,429.264C519.329,436.85 519.228,443.585 519.381,450.314C519.438,452.806 521.625,452.846 523.486,452.857C527.971,452.882 532.459,452.744 536.941,452.87C540.844,452.98 542.22,451.534 540.366,447.096Z" style="fill:rgb(20,54,105);fill-rule:nonzero;"/>
    </g>
    <g transform="matrix(1,0,0,1,-252.7,-269.694)">
        <path d="M597.082,397.982C601.175,396.446 604.884,394.994 608.638,393.667C612.883,392.167 616.707,393.623 618.227,397.197C619.934,401.214 618.389,404.747 613.592,406.579C602.125,410.958 590.573,415.117 579.053,419.361C575.493,420.673 572.082,421.041 570.083,416.945C568.317,413.328 569.917,408.608 573.966,406.865C580.967,403.853 588.187,401.352 595.316,398.637C595.781,398.46 596.25,398.292 597.082,397.982Z" style="fill:rgb(20,54,105);fill-rule:nonzero;"/>
    </g>
    <g transform="matrix(1,0,0,1,-252.7,-269.694)">
        <path d="M416.473,409.571C413.297,408.428 410.442,407.521 407.673,406.404C403.87,404.869 402.324,401.969 403.489,398.017C404.71,393.873 407.906,392.506 411.715,393.831C422.848,397.703 433.891,401.838 444.928,405.982C446.272,406.487 447.522,407.514 448.539,408.567C450.881,410.994 452.332,413.824 450.184,417.064C448.181,420.086 445.138,420.888 441.846,419.628C433.471,416.421 425.166,413.031 416.473,409.571Z" style="fill:rgb(20,54,105);fill-rule:nonzero;"/>
    </g>
    <g transform="matrix(1,0,0,1,-252.7,-269.694)">
        <path d="M436.26,479.558C438.839,480.838 441.203,481.764 443.257,483.15C446.511,485.346 448.007,488.514 446.016,492.207C444.017,495.915 440.46,496.303 436.88,494.932C430.979,492.67 425.218,490.041 419.343,487.706C415.634,486.232 411.767,485.152 408.077,483.635C403.795,481.875 402.033,478.265 403.288,474.49C404.643,470.416 407.532,469.016 412.502,470.726C420.368,473.433 428.111,476.497 436.26,479.558Z" style="fill:rgb(20,54,105);fill-rule:nonzero;"/>
    </g>
    <g transform="matrix(1,0,0,1,-252.7,-269.694)">
        <path d="M595.277,490.353C591.367,491.91 587.87,493.48 584.267,494.744C580.595,496.033 577.166,495.662 575.519,491.56C573.913,487.559 575.358,484.138 579.052,482.297C583.35,480.156 587.957,478.631 592.447,476.884C597.25,475.015 602.049,473.131 606.894,471.379C612.272,469.434 616.931,470.649 618.237,474.185C619.664,478.048 617.35,481.797 611.942,483.982C606.548,486.162 601.079,488.156 595.277,490.353Z" style="fill:rgb(20,54,105);fill-rule:nonzero;"/>
    </g>
    <g transform="matrix(1,0,0,1,-252.7,-269.694)">
        <path d="M406.284,420.075C408.642,418.574 410.727,418.85 412.827,419.653C422.444,423.331 432.076,426.967 441.665,430.714C444.352,431.764 446.745,433.326 447.25,436.539C448.008,441.356 443.544,445.291 438.614,443.591C427.944,439.912 417.346,435.99 406.876,431.775C402.143,429.869 401.974,424.98 406.284,420.075Z" style="fill:rgb(20,54,105);fill-rule:nonzero;"/>
    </g>
    <g transform="matrix(1,0,0,1,-252.7,-269.694)">
        <path d="M578.334,431.196C588.624,427.282 598.533,423.386 608.597,419.945C613.487,418.273 616.936,419.941 617.963,423.761C619.214,428.414 616.636,431.097 612.664,432.581C603.314,436.075 593.883,439.352 584.522,442.819C580.833,444.185 577.245,445.101 574.979,440.82C572.874,436.841 574.713,433.806 578.334,431.196Z" style="fill:rgb(20,54,105);fill-rule:nonzero;"/>
    </g>
    <g transform="matrix(1,0,0,1,-252.7,-269.694)">
        <path d="M404.152,454.633C402.109,447.41 405.893,443.024 412.468,445.126C421.935,448.151 431.437,451.192 440.443,455.492C443.575,456.987 446.163,459.107 445.994,462.995C445.849,466.361 441.835,470.015 438.708,468.896C427.35,464.828 415.691,461.475 404.993,455.713C404.723,455.568 404.565,455.214 404.152,454.633Z" style="fill:rgb(20,54,105);fill-rule:nonzero;"/>
    </g>
    <g transform="matrix(1,0,0,1,-252.7,-269.694)">
        <path d="M595.307,450.243C600,448.432 604.294,446.629 608.707,445.193C612.642,443.912 616.056,444.904 617.853,448.919C619.395,452.364 617.555,456.189 613.028,457.969C603.611,461.672 594.051,465.011 584.531,468.45C580.895,469.764 577.682,468.828 576.158,465.305C574.66,461.844 576.158,458.757 579.29,456.722C584.089,453.605 589.833,452.758 595.307,450.243Z" style="fill:rgb(20,54,105);fill-rule:nonzero;"/>
    </g>
</svg>
